# xmcd
#
# Track frame offsets:
#	150
#	21148
#	44813
#	62145
#	83802
#	108647
#	122665
#	139482
#	163961
#	180858
#	188263
#	206214
#
# Disc length: 3006 seconds
#
# Revision: 0
# Processed by: cddbd v1.5.2PL0 Copyright (c) Steve Scherf et al.
# Submitted via: EasyCDDAExtractor 11.1.0.1
#
DISCID=ac0bbc0c
DTITLE=Geoff Achison - Sovereign Town
DYEAR=2018
DGENRE=Blues
TTITLE0=Skeleton Kiss
TTITLE1=Miniature Men
TTITLE2=Walk Away
TTITLE3=Sovereign Town
TTITLE4=Wandsworth Bridge
TTITLE5=Misha Bella
TTITLE6=Small Town Crime
TTITLE7=World Of Blue
TTITLE8=Sleepwalking
TTITLE9=Hand Of Faith
TTITLE10=Rescue The Past
TTITLE11=Coolbardie Sunrise
EXTD=
EXTT0=
EXTT1=
EXTT2=
EXTT3=
EXTT4=
EXTT5=
EXTT6=
EXTT7=
EXTT8=
EXTT9=
EXTT10=
EXTT11=
PLAYORDER=
